<?xml version="1.0" encoding="utf-8"?>
<!-- Generator: Adobe Illustrator 17.0.0, SVG Export Plug-In . SVG Version: 6.00 Build 0)  -->
<!DOCTYPE svg PUBLIC "-//W3C//DTD SVG 1.1//EN" "http://www.w3.org/Graphics/SVG/1.1/DTD/svg11.dtd">
<svg version="1.1" id="Layer_1" xmlns="http://www.w3.org/2000/svg" xmlns:xlink="http://www.w3.org/1999/xlink" x="0px" y="0px"
	 width="512px" height="512px" viewBox="0 0 512 512" enable-background="new 0 0 512 512" xml:space="preserve">
<path d="M359.586,243.245c-15.702-7.85-31.319-12.408-44.233-15.058c30.308-19.501,50.442-53.512,50.442-92.157
	c0-60.396-49.137-109.535-109.535-109.535c-60.399,0-109.535,49.139-109.535,109.535c0,38.645,20.135,72.656,50.442,92.157
	c-12.913,2.649-28.53,7.208-44.233,15.058c-34.863,17.433-76.424,54.642-76.424,132.926v98.301c0,6.204,5.03,11.234,11.234,11.234
	c6.204,0,11.234-5.03,11.234-11.234v-98.301c0-53.347,21.311-91.191,63.344-112.497c32.351-16.396,65.538-16.698,65.851-16.698
	h56.172c0.324,0,32.828,0.186,65.19,16.363c42.472,21.24,64.005,59.2,64.005,112.832v98.301c0,6.204,5.03,11.234,11.234,11.234
	c6.204,0,11.234-5.03,11.234-11.234v-98.301C436.011,297.887,394.45,260.678,359.586,243.245z M256.261,223.097
	c-48.01,0-87.066-39.057-87.066-87.066c0-48.004,39.057-87.066,87.066-87.066c48.009,0,87.066,39.063,87.066,87.066
	C343.327,184.04,304.27,223.097,256.261,223.097z"/>
</svg>
