<?xml version="1.0" encoding="utf-8"?>
<!-- Generator: Adobe Illustrator 17.0.0, SVG Export Plug-In . SVG Version: 6.00 Build 0)  -->
<!DOCTYPE svg PUBLIC "-//W3C//DTD SVG 1.1//EN" "http://www.w3.org/Graphics/SVG/1.1/DTD/svg11.dtd">
<svg version="1.1" id="Layer_1" xmlns="http://www.w3.org/2000/svg" xmlns:xlink="http://www.w3.org/1999/xlink" x="0px" y="0px"
	 width="512px" height="512px" viewBox="0 0 512 512" enable-background="new 0 0 512 512" xml:space="preserve">
<g>
	<path d="M138.856,304.779c-0.295,0.298-0.568,0.609-0.825,0.931c-0.072,0.089-0.136,0.184-0.206,0.276
		c-0.19,0.255-0.373,0.516-0.541,0.783c-0.064,0.103-0.125,0.209-0.187,0.315c-0.159,0.27-0.304,0.546-0.437,0.827
		c-0.05,0.106-0.103,0.215-0.151,0.32c-0.134,0.306-0.254,0.619-0.359,0.936c-0.022,0.063-0.053,0.126-0.075,0.189l-24.605,77.284
		c-1.296,4.067-0.212,8.516,2.806,11.532c2.173,2.175,5.09,3.344,8.069,3.344c1.159,0,2.326-0.177,3.466-0.539l77.284-24.623
		c0.067-0.024,0.128-0.056,0.195-0.078c0.312-0.106,0.621-0.224,0.925-0.358c0.111-0.046,0.217-0.099,0.326-0.15
		c0.279-0.134,0.555-0.28,0.825-0.436c0.106-0.063,0.212-0.123,0.315-0.188c0.267-0.166,0.529-0.35,0.785-0.543
		c0.089-0.068,0.184-0.13,0.273-0.202c0.326-0.259,0.643-0.538,0.947-0.84c0.003-0.001,0.005-0.007,0.011-0.01l270.459-270.417
		c4.455-4.455,4.458-11.68,0.003-16.138l-52.662-52.696c-2.14-2.143-5.043-3.346-8.069-3.346h-0.003
		c-3.026,0-5.929,1.202-8.069,3.342L138.881,304.749C138.872,304.76,138.864,304.77,138.856,304.779z M152.14,334.143l26.163,26.153
		l-38.386,12.233L152.14,334.143z M380.694,95.236l35.683,37.388L199.629,349.341l-36.536-36.523L380.694,95.236z M417.422,58.507
		l36.527,36.551l-21.426,21.423L396.838,79.09L417.422,58.507z"/>
	<path d="M470.088,167.901c-6.305,0-11.412,5.11-11.412,11.412v222.541c0,31.465-25.6,57.062-57.062,57.062H110.598
		c-31.465,0-57.062-25.597-57.062-57.062V110.839c0-31.464,25.597-57.062,57.062-57.062h222.541c6.302,0,11.412-5.11,11.412-11.412
		c0-6.302-5.11-11.412-11.412-11.412H110.598c-44.05,0-79.887,35.839-79.887,79.887v291.016c0,44.05,35.836,79.887,79.887,79.887
		h291.016c44.048,0,79.887-35.837,79.887-79.887V179.313C481.5,173.011,476.39,167.901,470.088,167.901z"/>
</g>
</svg>
