<?xml version="1.0" encoding="utf-8"?>
<!-- Generator: Adobe Illustrator 17.0.0, SVG Export Plug-In . SVG Version: 6.00 Build 0)  -->
<!DOCTYPE svg PUBLIC "-//W3C//DTD SVG 1.1//EN" "http://www.w3.org/Graphics/SVG/1.1/DTD/svg11.dtd">
<svg version="1.1" id="Layer_1" xmlns="http://www.w3.org/2000/svg" xmlns:xlink="http://www.w3.org/1999/xlink" x="0px" y="0px"
	 width="512px" height="512px" viewBox="0 0 512 512" enable-background="new 0 0 512 512" xml:space="preserve">
<path d="M256.26,29.797c-124.569,0-225.912,101.343-225.912,225.918c0,124.569,101.343,225.912,225.912,225.912
	c124.569,0,225.912-101.343,225.912-225.912C482.171,131.141,380.828,29.797,256.26,29.797z M197.17,61.537
	c-14.337,14.813-26.981,33.404-37.467,55.295c-2.446,5.106-4.744,10.335-6.896,15.676c-14.877-5.184-28.785-11.501-41.365-18.832
	C134.931,89.728,164.291,71.563,197.17,61.537z M96.062,131.247c14.919,9.124,31.381,16.831,49.013,23.018
	c-8.749,27.99-13.754,58.406-14.729,89.971H53.636C56.012,201.804,71.483,162.812,96.062,131.247z M53.636,267.193h76.711
	c0.989,32.047,6.137,62.912,15.141,91.254c-17.489,6.109-33.835,13.703-48.671,22.699C71.794,349.413,56.04,310.057,53.636,267.193z
	 M112.33,398.661c12.49-7.202,26.28-13.395,41-18.495c2.001,4.904,4.12,9.718,6.372,14.421
	c10.486,21.892,23.128,40.488,37.464,55.295C164.705,439.984,135.67,422.156,112.33,398.661z M244.782,457.33
	c-28.858-14.583-53.014-44.831-69.273-83.834c21.914-5.644,45.336-9.012,69.273-9.831V457.33z M244.782,340.687
	c-26.933,0.83-52.955,4.584-77.243,11.019c-8.216-25.854-13.21-54.561-14.233-84.512h91.476V340.687z M244.782,244.237h-91.476
	c1.006-29.441,5.843-57.689,13.812-83.195c24.408,6.496,50.579,10.29,77.664,11.125V244.237z M244.782,149.187
	c-24.131-0.824-47.74-4.248-69.811-9.971c16.264-39.63,40.636-70.377,69.811-85.118V149.187z M416.454,131.247
	c24.582,31.565,40.053,70.557,42.43,112.99h-76.711c-0.975-31.565-5.98-61.982-14.729-89.971
	C385.074,148.078,401.535,140.371,416.454,131.247z M401.078,113.676c-12.58,7.331-26.488,13.647-41.365,18.832
	c-2.152-5.341-4.45-10.57-6.896-15.676C342.33,94.94,329.686,76.35,315.35,61.537C348.229,71.563,377.589,89.728,401.078,113.676z
	 M267.738,54.099c29.175,14.74,53.547,45.493,69.811,85.112c-22.074,5.728-45.683,9.152-69.811,9.976V54.099z M267.738,172.166
	c27.082-0.835,53.252-4.629,77.663-11.131c7.97,25.512,12.807,53.754,13.813,83.201h-91.476V172.166z M267.738,267.193h91.476
	c-1.023,29.951-6.017,58.669-14.239,84.523c-24.302-6.44-50.332-10.195-77.237-11.03V267.193z M267.738,457.325v-93.67
	c24.176,0.796,47.522,4.097,69.329,9.702C320.808,412.426,296.63,442.725,267.738,457.325z M315.35,449.887
	c14.337-14.813,26.981-33.409,37.467-55.301c2.276-4.741,4.411-9.606,6.429-14.555c14.645,5.1,28.373,11.338,40.95,18.624
	C376.855,422.156,347.815,439.984,315.35,449.887z M415.695,381.158c-14.833-8.99-31.173-16.595-48.665-22.704
	c9.004-28.343,14.155-59.213,15.144-91.26h76.711C456.48,310.063,440.72,349.419,415.695,381.158z"/>
</svg>
