<?xml version="1.0" encoding="utf-8"?>
<!-- Generator: Adobe Illustrator 17.0.0, SVG Export Plug-In . SVG Version: 6.00 Build 0)  -->
<!DOCTYPE svg PUBLIC "-//W3C//DTD SVG 1.1//EN" "http://www.w3.org/Graphics/SVG/1.1/DTD/svg11.dtd">
<svg version="1.1" id="Layer_1" xmlns="http://www.w3.org/2000/svg" xmlns:xlink="http://www.w3.org/1999/xlink" x="0px" y="0px"
	 width="512px" height="512px" viewBox="0 0 512 512" enable-background="new 0 0 512 512" xml:space="preserve">
<path d="M481.59,247.966L264.944,31.302c-2.169-2.172-5.113-3.39-8.18-3.39c-3.068,0-6.011,1.217-8.18,3.39L31.937,247.966
	c-3.311,3.312-4.299,8.289-2.508,12.611c1.791,4.323,6.011,7.141,10.689,7.141h42.59v205.057c0,6.392,5.18,11.57,11.57,11.57
	h108.326c6.389,0,11.57-5.178,11.57-11.57V364.512c0-23.484,19.106-42.587,42.59-42.587c23.484,0,42.59,19.103,42.59,42.587v108.263
	c0,6.392,5.18,11.57,11.57,11.57H419.25c6.389,0,11.57-5.178,11.57-11.57V267.718h42.59c4.678,0,8.898-2.818,10.689-7.141
	C485.89,256.255,484.901,251.278,481.59,247.966z M419.25,244.578c-6.389,0-11.57,5.182-11.57,11.57v205.057h-85.186v-96.693
	c0-36.241-29.484-65.727-65.73-65.727c-36.246,0-65.73,29.487-65.73,65.727v96.693h-85.186V256.148c0-6.388-5.18-11.57-11.57-11.57
	h-26.23L256.764,55.845L445.48,244.578H419.25z"/>
</svg>
