<?xml version="1.0" encoding="utf-8"?>
<!-- Generator: Adobe Illustrator 17.0.0, SVG Export Plug-In . SVG Version: 6.00 Build 0)  -->
<!DOCTYPE svg PUBLIC "-//W3C//DTD SVG 1.1//EN" "http://www.w3.org/Graphics/SVG/1.1/DTD/svg11.dtd">
<svg version="1.1" id="Layer_1" xmlns="http://www.w3.org/2000/svg" xmlns:xlink="http://www.w3.org/1999/xlink" x="0px" y="0px"
	 width="512px" height="512px" viewBox="0 0 512 512" enable-background="new 0 0 512 512" xml:space="preserve">
<path d="M481.17,190.386v-39.588c0-28.923-23.529-52.452-52.451-52.452H83.785c-28.935,0-52.472,23.529-52.472,52.452v211.078
	c0,28.932,23.537,52.47,52.472,52.47h344.934c28.921,0,52.451-23.538,52.451-52.47v-88.491c0.055-0.443,0.084-0.89,0.084-1.348
	V191.72C481.253,191.269,481.225,190.825,481.17,190.386z M52.737,257.23v-64.271h407.088c0.003,0.033,0,0.064,0.005,0.096v64.176
	H52.737z M83.785,119.77h344.934c17.109,0,31.027,13.919,31.027,31.028v20.737H52.737v-20.737
	C52.737,133.69,66.666,119.77,83.785,119.77z M428.719,392.923H83.785c-17.119,0-31.048-13.927-31.048-31.046v-83.222h407.009
	v83.222C459.746,378.996,445.828,392.923,428.719,392.923z"/>
</svg>
