<?xml version="1.0" encoding="utf-8"?>
<!-- Generator: Adobe Illustrator 17.0.0, SVG Export Plug-In . SVG Version: 6.00 Build 0)  -->
<!DOCTYPE svg PUBLIC "-//W3C//DTD SVG 1.1//EN" "http://www.w3.org/Graphics/SVG/1.1/DTD/svg11.dtd">
<svg version="1.1" id="Layer_1" xmlns="http://www.w3.org/2000/svg" xmlns:xlink="http://www.w3.org/1999/xlink" x="0px" y="0px"
	 width="512px" height="512px" viewBox="0 0 512 512" enable-background="new 0 0 512 512" xml:space="preserve">
<path d="M412.132,321.59c-34.391-30.512-47.843-147.678-48.457-162.768c-0.083-32.742-26.743-59.347-59.502-59.347h-8.278
	c4.46-7.116,7.044-15.516,7.044-24.513c0-25.537-20.776-46.316-46.315-46.316c-25.54,0-46.316,20.778-46.316,46.316
	c0,8.998,2.584,17.397,7.044,24.513h-9.551c-32.764,0-59.427,26.611-59.502,59.358c-0.586,15.057-13.878,132.212-48.286,162.752
	c-30.479,27.02-47.959,55.629-47.959,78.493c0,6.258,5.074,11.333,11.333,11.333h108.958c5.55,40.743,40.552,72.251,82.795,72.251
	c42.243,0,77.245-31.508,82.795-72.251h110.8c6.258,0,11.333-5.074,11.333-11.333C460.068,377.224,442.596,348.61,412.132,321.59z
	 M256.623,51.311c13.042,0,23.65,10.608,23.65,23.65s-10.608,23.65-23.65,23.65s-23.65-10.608-23.65-23.65
	S243.581,51.311,256.623,51.311z M255.14,460.996c-29.72,0-54.538-21.387-59.862-49.586h119.723
	C309.678,439.609,284.861,460.996,255.14,460.996z M76.898,388.745c4.418-12.865,15.95-30.517,38.156-50.206
	c45.574-40.45,55.911-178.268,55.911-179.562c0-20.313,16.523-36.837,36.837-36.837h96.372c20.311,0,36.836,16.523,36.836,36.837
	c0,1.295,10.37,139.013,56.082,179.568c22.192,19.688,33.718,37.335,38.134,50.2H76.898z"/>
</svg>
