<?xml version="1.0" encoding="utf-8"?>
<!-- Generator: Adobe Illustrator 17.0.0, SVG Export Plug-In . SVG Version: 6.00 Build 0)  -->
<!DOCTYPE svg PUBLIC "-//W3C//DTD SVG 1.1//EN" "http://www.w3.org/Graphics/SVG/1.1/DTD/svg11.dtd">
<svg version="1.1" id="Layer_1" xmlns="http://www.w3.org/2000/svg" xmlns:xlink="http://www.w3.org/1999/xlink" x="0px" y="0px"
	 width="512px" height="512px" viewBox="0 0 512 512" enable-background="new 0 0 512 512" xml:space="preserve">
<g>
	<path d="M256.171,154.731c-56.031,0-101.619,45.591-101.619,101.619c0,56.034,45.588,101.619,101.619,101.619
		c56.034,0,101.619-45.585,101.619-101.619C357.79,200.322,312.205,154.731,256.171,154.731z M256.171,334.058
		c-42.847,0-77.708-34.856-77.708-77.708c0-42.847,34.862-77.708,77.708-77.708c42.85,0,77.708,34.861,77.708,77.708
		C333.879,299.203,299.021,334.058,256.171,334.058z"/>
	<path d="M484.816,296.126l-0.003-80.406c0-6.602-5.353-11.955-11.955-11.955h-50.284c-3.035-9.597-6.906-18.925-11.573-27.88
		l35.574-35.573c2.245-2.242,3.503-5.283,3.503-8.453c0-3.17-1.258-6.211-3.503-8.453L389.12,65.952
		c-2.245-2.242-5.286-3.506-8.456-3.506c-3.173,0-6.214,1.264-8.456,3.506l-35.568,35.57c-8.958-4.67-18.289-8.54-27.886-11.576
		V39.663c0-6.602-5.353-11.955-11.955-11.955h-81.258c-6.602,0-11.955,5.353-11.955,11.955v50.284
		c-9.597,3.035-18.925,6.906-27.88,11.576l-35.574-35.57c-2.242-2.242-5.283-3.506-8.453-3.506c-3.17,0-6.211,1.264-8.456,3.506
		L65.77,123.407c-2.242,2.242-3.503,5.283-3.503,8.453c0,3.17,1.261,6.211,3.503,8.453l35.573,35.573
		c-4.67,8.955-8.54,18.283-11.573,27.88H39.487c-6.602,0-11.955,5.353-11.955,11.955v81.258c0,6.602,5.353,11.955,11.955,11.955
		h50.284c3.033,9.603,6.903,18.925,11.573,27.886L65.77,372.387c-4.667,4.67-4.667,12.241,0,16.911l57.455,57.458
		c2.242,2.242,5.286,3.503,8.456,3.503c3.17,0,6.211-1.261,8.453-3.503l35.574-35.573c8.955,4.67,18.283,8.54,27.88,11.57v50.284
		c0,6.602,5.353,11.955,11.955,11.955H296.8c6.602,0,11.955-5.353,11.955-11.955v-50.284c9.597-3.03,18.925-6.9,27.883-11.57
		l35.571,35.573c2.244,2.242,5.283,3.503,8.456,3.503c3.173,0,6.211-1.261,8.456-3.503l57.452-57.458
		c4.67-4.67,4.67-12.241,0-16.905l-35.568-35.574c4.664-8.96,8.534-18.283,11.57-27.886h50.299c0,0,0.012,0,0.018,0
		c6.602,0,11.955-5.353,11.955-11.955C484.845,296.692,484.834,296.412,484.816,296.126z M413.567,285.023
		c-5.455,0-10.218,3.695-11.576,8.978c-3.503,13.596-8.92,26.654-16.106,38.814c-2.779,4.699-2.02,10.677,1.839,14.535
		l33.487,33.496l-40.547,40.547l-33.493-33.49c-3.856-3.859-9.836-4.617-14.535-1.839c-12.165,7.186-25.224,12.609-38.816,16.105
		c-5.283,1.36-8.975,6.124-8.975,11.576v47.336h-57.347v-47.336c0-5.452-3.692-10.216-8.975-11.576
		c-13.593-3.502-26.654-8.919-38.817-16.105c-4.699-2.779-10.677-2.02-14.535,1.839l-33.49,33.49l-40.547-40.547l33.487-33.49
		c3.859-3.859,4.614-9.836,1.842-14.535c-7.189-12.165-12.609-25.224-16.106-38.819c-1.36-5.283-6.123-8.978-11.579-8.978H51.442
		v-57.347h47.336c5.455,0,10.218-3.689,11.579-8.972c3.497-13.595,8.917-26.654,16.106-38.819
		c2.773-4.699,2.017-10.677-1.842-14.535l-33.493-33.49l40.553-40.55l33.49,33.492c3.859,3.859,9.839,4.617,14.535,1.839
		c12.163-7.186,25.224-12.609,38.817-16.105c5.283-1.36,8.975-6.124,8.975-11.582V51.618h57.347v47.336
		c0,5.458,3.692,10.221,8.975,11.582c13.595,3.497,26.657,8.914,38.819,16.105c4.699,2.773,10.68,2.02,14.538-1.839l33.487-33.492
		l40.547,40.55l-33.487,33.49c-3.859,3.859-4.618,9.836-1.839,14.535c7.186,12.165,12.603,25.224,16.106,38.819
		c1.357,5.283,6.12,8.972,11.576,8.972h47.336l0.003,57.347H413.567z"/>
</g>
</svg>
