<?xml version="1.0" encoding="utf-8"?>
<!-- Generator: Adobe Illustrator 17.0.0, SVG Export Plug-In . SVG Version: 6.00 Build 0)  -->
<!DOCTYPE svg PUBLIC "-//W3C//DTD SVG 1.1//EN" "http://www.w3.org/Graphics/SVG/1.1/DTD/svg11.dtd">
<svg version="1.1" id="Layer_1" xmlns="http://www.w3.org/2000/svg" xmlns:xlink="http://www.w3.org/1999/xlink" x="0px" y="0px"
	 width="512px" height="512px" viewBox="0 0 512 512" enable-background="new 0 0 512 512" xml:space="preserve">
<path d="M479.615,33.499c-3.895-3.895-9.802-4.949-14.801-2.637L37.694,228.119c-5.24,2.419-8.288,7.973-7.515,13.692
	c0.773,5.718,5.185,10.264,10.877,11.204l187.962,31.094l31.091,187.946c0.943,5.694,5.487,10.108,11.204,10.878
	c0.594,0.08,1.181,0.12,1.768,0.12c5.066,0,9.757-2.936,11.926-7.633l197.248-427.12C484.562,43.301,483.51,37.394,479.615,33.499z
	 M408.892,85.639L235.933,258.611l-148.417-24.55L408.892,85.639z M279.065,425.595L254.52,277.197l172.953-172.969L279.065,425.595
	z"/>
</svg>
