<?xml version="1.0" encoding="utf-8"?>
<!-- Generator: Adobe Illustrator 17.0.0, SVG Export Plug-In . SVG Version: 6.00 Build 0)  -->
<!DOCTYPE svg PUBLIC "-//W3C//DTD SVG 1.1//EN" "http://www.w3.org/Graphics/SVG/1.1/DTD/svg11.dtd">
<svg version="1.1" id="Layer_1" xmlns="http://www.w3.org/2000/svg" xmlns:xlink="http://www.w3.org/1999/xlink" x="0px" y="0px"
	 width="512px" height="512px" viewBox="0 0 512 512" enable-background="new 0 0 512 512" xml:space="preserve">
<path d="M418.25,150.923h-60.866V128.63c0-55.088-44.816-99.905-99.905-99.905c-55.089,0-99.905,44.817-99.905,99.905v22.293h-63.27
	c-5.865,0-10.621,4.754-10.621,10.621V385.81c0,53.948,43.89,97.837,97.838,97.837h149.512c53.945,0,97.836-43.889,97.836-97.837
	V161.543C428.871,155.677,424.115,150.923,418.25,150.923z M178.816,128.63c0-43.374,35.287-78.664,78.664-78.664
	c43.374,0,78.663,35.29,78.663,78.664v22.293H178.816V128.63z M407.63,385.81c0,42.235-34.361,76.596-76.595,76.596H181.523
	c-42.236,0-76.597-34.361-76.597-76.596V172.164h52.649v32.002c-3.254,2.916-5.31,7.138-5.31,11.85
	c0,8.8,7.131,15.931,15.931,15.931c8.795,0,15.931-7.13,15.931-15.931c0-4.711-2.059-8.932-5.31-11.848v-32.003h157.327v32.002
	c-3.251,2.916-5.31,7.138-5.31,11.85c0,8.8,7.131,15.931,15.931,15.931c8.798,0,15.931-7.13,15.931-15.931
	c0-4.711-2.059-8.932-5.31-11.848v-32.003h50.246V385.81z"/>
</svg>
