<?xml version="1.0" encoding="utf-8"?>
<!-- Generator: Adobe Illustrator 17.0.0, SVG Export Plug-In . SVG Version: 6.00 Build 0)  -->
<!DOCTYPE svg PUBLIC "-//W3C//DTD SVG 1.1//EN" "http://www.w3.org/Graphics/SVG/1.1/DTD/svg11.dtd">
<svg version="1.1" id="Layer_1" xmlns="http://www.w3.org/2000/svg" xmlns:xlink="http://www.w3.org/1999/xlink" x="0px" y="0px"
	 width="512px" height="512px" viewBox="0 0 512 512" enable-background="new 0 0 512 512" xml:space="preserve">
<path d="M493.482,201.687c-1.484-4.563-5.429-7.889-10.18-8.585l-148.656-21.597L268.168,36.804
	c-2.125-4.305-6.509-7.033-11.31-7.033c-4.8,0-9.185,2.728-11.31,7.033L179.07,171.505L30.414,193.102
	c-4.748,0.696-8.695,4.021-10.18,8.585c-1.484,4.569-0.246,9.582,3.19,12.932l107.567,104.852l-25.394,148.052
	c-0.81,4.73,1.133,9.515,5.016,12.335c3.886,2.821,9.034,3.19,13.284,0.961l132.961-69.903l132.961,69.903
	c1.844,0.967,3.858,1.447,5.866,1.447c2.614,0,5.219-0.813,7.415-2.408c3.883-2.82,5.829-7.605,5.016-12.335l-25.391-148.052
	l107.567-104.852C493.729,211.269,494.966,206.256,493.482,201.687z M360.37,306.033c-2.974,2.901-4.329,7.07-3.627,11.165
	l22.195,129.399l-116.211-61.09c-1.838-0.967-3.852-1.453-5.869-1.453c-2.017,0-4.031,0.487-5.869,1.453l-116.211,61.09
	l22.195-129.399c0.702-4.095-0.653-8.264-3.627-11.165l-94.013-91.642l129.925-18.875c4.107-0.598,7.658-3.178,9.496-6.904
	l58.104-117.728l58.104,117.728c1.839,3.726,5.389,6.306,9.496,6.904l129.928,18.875L360.37,306.033z"/>
</svg>
