<?xml version="1.0" encoding="utf-8"?>
<!-- Generator: Adobe Illustrator 17.0.0, SVG Export Plug-In . SVG Version: 6.00 Build 0)  -->
<!DOCTYPE svg PUBLIC "-//W3C//DTD SVG 1.1//EN" "http://www.w3.org/Graphics/SVG/1.1/DTD/svg11.dtd">
<svg version="1.1" id="Layer_1" xmlns="http://www.w3.org/2000/svg" xmlns:xlink="http://www.w3.org/1999/xlink" x="0px" y="0px"
	 width="512px" height="512px" viewBox="0 0 512 512" enable-background="new 0 0 512 512" xml:space="preserve">
<path d="M442.498,402.171c-32.877,34.581-75.694,53.626-120.567,53.626c-81.044,0-149.537-61.873-170.47-146.023h220.647
	c7.384,0,13.37-5.983,13.37-13.37c0-7.383-5.987-13.37-13.37-13.37H146.545c-1.09-8.952-1.665-18.087-1.665-27.368
	c0-8.851,0.516-17.563,1.508-26.112h225.72c7.384,0,13.37-5.983,13.37-13.37c0-7.383-5.987-13.37-13.37-13.37H151.157
	c20.561-84.791,89.325-147.284,170.774-147.284c44.873,0,87.693,19.047,120.563,53.626c5.089,5.353,13.553,5.569,18.903,0.48
	c5.353-5.087,5.566-13.551,0.48-18.903c-37.973-39.946-87.673-61.943-139.947-61.943c-96.03,0-176.747,74.333-198.196,174.025
	h-62.48c-7.384,0-13.37,5.987-13.37,13.37c0,7.387,5.987,13.37,13.37,13.37h58.243c-0.888,8.57-1.358,17.283-1.358,26.112
	c0,9.262,0.512,18.394,1.488,27.368H61.254c-7.384,0-13.37,5.987-13.37,13.37c0,7.387,5.987,13.37,13.37,13.37h62.758
	c21.857,99.056,102.297,172.763,197.919,172.763c52.273,0,101.974-21.999,139.943-61.942c5.089-5.353,4.877-13.817-0.477-18.904
	C456.047,396.605,447.583,396.817,442.498,402.171z"/>
</svg>
